<?xml version="1.0" ?>
<!-- Uploaded to: SVG Repo, www.svgrepo.com, Generator: SVG Repo Mixer Tools -->
<svg width="800px" height="800px" viewBox="0 0 512 512" version="1.1" xml:space="preserve" xmlns="http://www.w3.org/2000/svg" xmlns:xlink="http://www.w3.org/1999/xlink">
<style type="text/css">
	.st0{fill:#16ADE1;}
	.st1{fill:#1B3954;}
</style>
<g id="Layer_1"/>
<g id="Layer_2">
<g>
<path class="st1" d="M361.3,41H150.7c-10.7,0-19.3,8.7-19.3,19.3v326h249.3v-326C380.7,49.7,372,41,361.3,41z M208.7,74.2    c2.5-2.5,5.9-4,9.7-4h75.3c7.5,0,13.7,6.1,13.7,13.7c0,3.8-1.5,7.2-4,9.7c-2.5,2.5-5.9,4-9.7,4h-75.3c-7.5,0-13.7-6.1-13.7-13.7    C204.7,80.1,206.2,76.6,208.7,74.2z M290.1,331l-7.8,3.3c-1,2-2.1,4-3.4,5.9c-7.2,10.5-18.5,18.9-31.9,23.6    c-7.4,2.6-14.9,3.9-22.4,3.9c-20.8,0-37.7-10.3-43.3-26.3c-4.1-11.8-1.6-24.9,6.8-36.2l-1.2-1.6c-11.5-15.2-17.6-33.3-17.6-52.4    c0-18.9,6-36.9,17.3-52c11-14.6,26.6-25.6,43.9-30.9l2.9-0.9v-23l42-4.6l57.2-6.2v53.4l-16.3,1.8c16.9,16.3,26.5,38.5,26.5,62.4    C342.8,286,322.1,317.3,290.1,331z"/>
<path class="st0" d="M131.3,451.7c0,10.7,8.7,19.3,19.3,19.3h210.7c10.7,0,19.3-8.7,19.3-19.3v-55.3H131.3V451.7z M256,417.3    c9,0,16.3,7.3,16.3,16.3c0,9-7.3,16.3-16.3,16.3s-16.3-7.3-16.3-16.3C239.7,424.6,247,417.3,256,417.3z"/>
<path class="st0" d="M218.9,283.1c4.8-1.7,9.7-2.8,14.5-3.4V177.9c-31.4,9.6-54.2,38.8-54.2,73.4c0,17.4,5.8,33.5,15.6,46.3    C201.4,291.3,209.7,286.3,218.9,283.1z"/>
<path class="st0" d="M302.7,190.3l-16.1,1.8v124.8c0,1.6-0.1,3.3-0.4,4.9c27.4-11.7,46.6-38.9,46.6-70.6    C332.8,226.4,321,204.3,302.7,190.3z"/>
<path class="st1" d="M322.6,178.1v-33.3l-46.1,5l-33.1,3.6v135.9c-6.7-0.3-14,0.8-21.2,3.3c-8.3,2.9-15.4,7.3-20.9,12.6    c-9.9,9.6-14.4,22-10.6,33c5.9,17.1,29.6,24.3,52.9,16.2c11.8-4.1,21.3-11.3,26.9-19.7c2-2.9,3.5-5.9,4.5-9    c0.9-2.9,1.4-5.8,1.4-8.7V183.1l12.1-1.3L322.6,178.1z"/>
</g>
</g>
</svg>